<?xml version="1.0" encoding="UTF-8"?>
<!DOCTYPE svg PUBLIC "-//W3C//DTD SVG 1.1//EN" "http://www.w3.org/Graphics/SVG/1.1/DTD/svg11.dtd">
<!-- Creator: CorelDRAW 2018 (64 Bit) -->
<svg xmlns="http://www.w3.org/2000/svg" xml:space="preserve" width="22.959mm" height="10.5834mm" version="1.1" style="shape-rendering:geometricPrecision; text-rendering:geometricPrecision; image-rendering:optimizeQuality; fill-rule:evenodd; clip-rule:evenodd"
viewBox="0 0 2289.94 1055.59"
 xmlns:xlink="http://www.w3.org/1999/xlink">
 <defs>
  <style type="text/css">
   <![CDATA[
    .fil0 {fill:#373435}
   ]]>
  </style>
 </defs>
 <g id="Camada_x0020_1">
  <metadata id="CorelCorpID_0Corel-Layer"/>
  <path class="fil0" d="M595.11 870.96c0,0 4.8,21.12 16.64,13.16 11.83,-7.94 16.64,-19.87 28.47,-19.87 11.84,0 61.17,-9.27 73.01,0 11.84,9.28 13.02,1.32 18.94,1.32 5.91,0 23.3,3.09 23.3,3.09 15.13,-1.58 12.05,-25.63 1.11,-32.66 -15.78,-12.37 -37.03,-20.31 -52.81,-32.68 -1.59,-11.93 -3.16,-23.85 -4.74,-35.77 4.34,-6.18 8.68,-12.37 13.02,-18.55 0,-19.87 0,-39.75 0,-59.61 -2.36,-5.3 -4.74,-10.6 -7.1,-15.9 -0.79,-15.01 -1.58,-30.02 -2.36,-45.04 -1.97,-2.64 -3.95,-5.3 -5.91,-7.95 0,-5.74 0,-11.48 0,-17.23 3.94,-5.74 11.94,-11.48 15.88,-17.22 1.19,-11.04 -4.11,-18.83 -2.92,-29.87 -2.76,-14.13 -3.1,-31.52 -5.85,-45.64 0,-17.23 0,-34.45 0,-51.67 11.45,-3.42 14.22,-8.5 15.04,-13.62 1.05,-6.61 -2.18,-14.39 -5.58,-30.1 -1.58,-82.57 -2.34,-168.41 -3.93,-250.99 6.3,-9.87 13.84,-14.98 14.01,-22.29 0.12,-5.69 -5.99,-10.43 -13.63,-16.86 0,-5.75 0,-11.48 0,-17.23 0,0 13.02,-26.49 23.67,-26.49 10.65,0 17.75,-7.95 17.75,-15.9 9.72,-19.31 -10.65,-21.19 -10.65,-21.19 -22.54,-0.47 -48.07,0.68 -70.07,0.22 -19.41,-0.42 -35.33,-2.45 -54.21,-2.87 -8.29,0.44 -16.57,0.88 -24.86,1.33 -20.37,6.18 -16.09,17.24 -8.29,23.42 9.47,5.95 17.55,12.79 28.41,13.02 13.26,0.27 23.8,4.62 28.41,17.88 1.19,52.99 2.37,105.98 3.55,158.98 0.4,39.08 1.61,78.17 1.99,117.24 0.4,39.08 -0.01,78.17 0.38,117.24 0.79,45.93 1.58,91.86 2.36,137.78 0,0 -2.36,17.23 -5.91,21.2 -3.55,3.97 -2.37,38.41 -2.37,38.41 13.12,11.42 10.32,9.82 1.19,25.17 -0.79,34.01 -1.58,68.01 -2.36,102 -3.16,6.19 -6.31,12.38 -9.48,18.55 0,0 -34.07,19.97 -34.07,37.18zm-573.21 164.69c-17.54,-3.61 -20.84,-12.11 -14.6,-17.12 3.74,-3 13.74,-2.89 18.23,-4.99 6.58,-3.1 13.31,-7.16 17.27,-12.07 6.77,-8.38 2.66,-27.78 10.74,-43.59 7.76,-66.68 10.08,-155.03 2.32,-184.75 -4.66,-45.8 0.13,-197.93 0.13,-217.22 5.16,-9.26 7.09,-10.02 7.13,-26.25 0.01,-6.34 4.28,-16.22 -0.27,-24.07 -6.59,-7.53 -4.6,-36.96 -5.12,-53.56 -0.77,-24.71 1.05,-24.51 7.92,-46.88 2.59,-8.42 3.47,-18.44 0,-26.51 -5.6,-13.06 -13.69,2.02 -13.16,-24.18 1.32,-63.59 3.69,-127.57 2.02,-191.12 0.36,-5.67 9.79,-6.7 11.64,-12.06 2.34,-6.8 3.12,-15.22 0,-21.69 -1.78,-3.66 -11.68,1.11 -14.58,-1.68 -17.76,-16.97 -40.08,-27.63 -50.37,-50.27 -3.99,-8.78 2.44,-28.21 10.9,-32.42 14,-6.95 40.07,0.24 55.4,-2.4 8.24,-1.42 13.45,-6.32 21.81,-6.69 65.12,-2.87 132.15,-9.39 197.05,-2.95 10.38,1.03 13.81,19.36 23.28,23.91 12.98,6.23 31.96,4.9 41.91,15.54 15.94,17.06 27.39,31.11 29.41,54.75 2.48,29.01 7.46,61.88 7.22,84.17 -0.21,18.66 -5.81,35.5 -14.13,51.56 -11.4,22 -24.96,42.53 -39.66,64.26 -8.47,12.52 -23.54,24.15 -27.09,38.43 -3.66,14.77 34.48,3.93 42.29,16.86 7.5,12.43 -6.4,26.99 -2.2,40.99 3.74,12.49 25.36,13.7 27.94,26.51 6.62,33.04 -7.99,67.99 -2.32,101.23 1.81,10.64 18.69,11.02 20.33,21.69 1.99,23.07 1.29,47.48 1.47,71.98 0.19,26.07 1.2,52.27 0.87,77.06 -0.64,9.35 -12.88,14.81 -13.97,24.1 -2.91,24.75 5.59,52.67 0.13,76.93 -5.76,25.55 -26.3,43.6 -34.31,68.48 -6.94,21.55 -4.98,53.03 -16.17,66.55 -18.53,5.81 -41.58,18.85 -56.17,29.72 -21.31,15.86 -34.95,34.03 -41.5,34.61 -8.33,7.41 -25.95,2.46 -36.28,6.31 -9.53,3.54 -10.42,11.52 -20.46,10.22 -7.93,-1.02 -5.46,-7.6 -11.64,-12.83 -3.6,-3.06 -10.53,-3.25 -13.97,0 -20.9,16.82 -5.32,12.42 -29.04,10.22 -24.11,-2.22 -71.03,5.21 -100.38,-0.8l-0.01 0zm135.06 -96.75c5.43,-10.44 10.86,-20.89 16.3,-31.34 -1.56,-34.53 -3.1,-69.08 -4.66,-103.63 4.66,-6.43 9.32,-12.86 13.97,-19.29 0,-34.8 0,-69.59 0,-104.39 0,-15.82 -2.2,-31.64 -2.2,-47.46 -16.35,-13.51 -8.54,-13.32 4.65,-28.91 0,-15.27 3.68,-27.58 3.68,-42.85 -1.56,-12.86 -3.1,-25.71 -4.66,-38.56 2.33,-6.43 4.66,-12.86 6.99,-19.28 0,-19.34 2.2,-34.98 2.2,-54.31 0,-18.15 0.52,-24.24 3.84,-23.1 3.32,1.14 9.44,9.5 20.61,20.24 8.49,8.16 16.98,16.32 25.46,24.48 15.68,15.07 30.94,16.44 24.59,41.12 -5.93,23.1 11.13,29.5 5.82,52.42 -4.05,17.5 -9.38,28.22 -8.2,39.07 0.71,6.5 3.76,13.08 10.82,21.19 6.52,7.5 8.7,7.03 4.8,16.27 -6.04,14.31 -11.2,22.65 -11.81,31.24 -0.78,11.04 5.24,16.12 10.51,35.62 4.31,15.95 3.91,26.52 -0.09,42.52 -4.73,18.98 -9.46,37.95 -14.18,56.93 -0.54,14.35 -1.85,28.72 -2.86,43.08 -1.55,21.89 -4.46,22.45 -19.68,38.09 -13.82,14.21 -31.62,26.37 -44.95,39.08 -14.74,5.63 -26.21,6.14 -40.96,11.77l0.01 0zm35.62 -608.98c11.81,0.35 17.1,1.52 20.76,0.01 3.66,-1.52 5.72,-5.71 11.05,-16.07 6.9,-13.4 17.13,-30.14 25.6,-31.41 14.27,-2.11 21.72,-4.24 21.72,-4.24 0,0 7.48,-1.42 4.92,-19.84 -2.55,-18.41 -7.83,-36.13 -3.18,-41.08 4.64,-4.96 5.63,-19.12 0.68,-24.79 -4.93,-5.67 -9.62,-11.34 -1.66,-19.13 7.98,-7.79 13.47,-20.84 -5.58,-18.71 -19.06,2.12 -18.82,-6.12 -21.03,-11.79 -2.2,-5.67 -22.99,-4.37 -33.86,-5 -10.86,2.12 -19.99,1.42 -19.68,12.75 0.32,11.33 -1.51,65.96 -1.36,71.63 0.16,5.67 1.61,107.66 1.61,107.66zm602.85 497.24c-0.85,4.82 -11.9,4.85 -11.05,9.67 1.19,6.73 1.63,17.26 8.42,18.14 19.69,2.54 46.68,-5.29 66.2,-1.68 7.72,1.43 8.14,14.57 15.2,17.95 5.81,-0.09 14.75,0.11 22.11,0 5.68,-2.94 4.15,-13.35 9.67,-16.58 6.8,-3.97 16.09,-5.49 23.49,-2.76 3.99,1.47 -1.45,11.94 2.76,12.44 34.45,-1.3 65.21,2.47 97.8,0 6.51,-1.07 -0.12,-10.38 5.22,-14.25 6.05,-4.4 21.09,3.28 22.1,-4.14 5.3,-38.38 -2.96,-81.23 0.64,-119.79 1.16,-12.35 13,-19.67 15.65,-31.79 0.88,-4.03 5.72,-4.11 6.1,-8.08 1.34,-13.83 1.1,-30.62 -2.4,-44.25 -4.65,-4.76 -18.84,-6.48 -23.5,-4.32 -5.25,3.86 -0.47,17.57 -3.99,23.05 -1.75,2.71 -7.95,-2.72 -9.67,0 -1.71,2.67 0.5,7.06 1.28,10.52 0.46,2.08 0.42,3.83 -1.28,4.68 -9.07,4.53 -22.41,-6.21 -30.4,0 -7.85,6.1 0.96,17.91 -5.68,25.31 -10.76,11.99 -33.82,19.02 -44.54,31.05 -12.75,14.3 -11.61,28.9 -26.25,41.25 -11.46,9.65 -30.94,10.67 -44.83,16.31 -16.11,6.54 -23.8,18.61 -40.52,23.31 -5.06,1.43 -11.22,-7.4 -9.67,-12.43 12.54,-40.62 28.82,-81.47 42.35,-121.78 8.68,-25.85 12.76,-42.17 22.13,-67.78 9.7,-26.52 22.38,-59.29 38.22,-82.65 3.12,-4.61 13.53,-1.61 15.2,-6.91 4.15,-13.18 -3.6,-28.12 0,-41.45 2.67,-9.87 13.07,-19.35 21.66,-24.88 5.81,-3.74 15.09,1.47 17.65,-4.95 5.98,-14.97 0.39,-30.83 4.16,-46.51 2.54,-10.56 9.8,-17.04 14.42,-26.87 6.12,-13.06 5.68,-24.4 12.43,-37.14 5.51,-10.36 17.09,-24.88 20.42,-36.13 4.58,-15.46 0.83,-23.05 2.31,-39.11 0.4,-4.32 6.73,-6.71 6.91,-11.05 2.14,-52 4.9,-104.19 1.85,-156.15 -0.25,-4.23 -9.75,-4.05 -9.67,-8.29 0.33,-15.88 2.25,-29.9 1.39,-44.21 -0.17,-2.8 0.8,-5.09 -2,-5.21 -43.27,-1.82 -85.98,-0.83 -129.27,-0.32 -35.47,0.41 -71.03,-2.43 -106.4,0 -5.36,0.36 -10.15,1.29 -13.82,5.2 -3.51,3.76 -5.26,11.77 -5.06,16.91 0.93,23.1 -0.46,48.23 0,76 0.08,5.15 10.22,2.06 11.97,6.91 4.88,13.49 5.25,28.54 4.15,42.84 -0.35,4.59 -5.93,10.78 -5.82,15.38 2.21,15.98 4.29,27.28 7.2,42.66 1.69,5.94 6.79,10.59 8.3,16.58 1.79,7.17 -4.75,21.63 2.61,22.11 2.44,0.16 10.97,1.59 15.35,0 5.62,-2.03 -2.07,-12.35 0,-17.96 1.47,-3.98 9,-4.1 9.66,-8.29 3.66,-22.76 -2.69,-49.42 0.92,-72.18 1.11,-6.94 5.08,-14.26 11.06,-17.96 5.08,-3.15 14.28,4.72 17.96,0 5.1,-6.55 0.08,-14.1 3.23,-21.78 4.51,-10.99 11.84,-21.13 20.73,-29.02 8.16,-7.25 16.32,-15.93 27.17,-17.06 24.27,-2.52 53.28,-0.26 86.15,-1.68 3.07,-0.14 3.91,4.6 4.14,7.68 1.17,15.15 3.92,35.74 0,45.6 -5.69,14.3 -18.56,30.27 -31.63,45.13 -8.95,10.16 -17.98,19.15 -24.88,29.34 -8.27,12.21 4.08,28.85 -0.15,42.98 -4.34,14.45 -16.17,29.8 -25.34,41.78 -7.52,9.82 -18.58,14.85 -25.63,25.01 -8.81,12.7 -13.93,25.19 -19.5,39.61 -4.62,11.99 -7.6,24.64 -9.67,37.31 -1.64,10.01 3.15,21.33 -1.38,30.4 -3.32,6.64 -10.82,5.42 -15.65,11.05 -6.7,7.82 -10.63,17.85 -13.82,27.64 -3.78,11.6 -4.09,18.46 -9.99,29.13 -6.61,11.97 -19.91,23.53 -25.93,35.82 -6.57,13.4 -7.32,29.67 -10.6,44.21 -3.18,14.07 -5.83,27.33 -8.75,41.46 -3.55,17.28 -7.27,34.86 -6.9,52.5 0.11,5.38 5.78,9.08 8.29,13.82 2.11,4.01 6.96,8.14 5.53,12.44 -1.95,5.87 -12.95,6.3 -13.81,12.44 -0.91,6.33 0.71,12.18 5.36,16.59 4.04,3.81 12.3,2.15 15.2,6.9 3.12,5.12 2.56,12.55 0,17.95 -2.13,4.52 -9.61,3.42 -10.58,8.3 -3.98,19.89 0.9,34.05 -2.62,54.01zm1198.12 195.84c-2.59,-8.24 3.88,-9.84 8.19,-14.14 6.29,-6.27 12.39,-12.41 14.88,-24.79 0.95,-4.7 5.76,-12.28 6.86,-19.8 1.64,-10.98 -0.86,-22.42 -3.85,-29.51 -3.93,-9.3 -10.36,-14.13 -8.03,-23 0.82,-5.67 13.64,-6.36 23.74,-10.85 5.3,-2.34 9.83,-6.94 11.53,-11.26 2.2,-5.7 -5.15,-4.73 -8.9,-11.96 -3.99,-7.69 -4.58,-19.22 -7.66,-24.96 -5.37,-9.98 -15.17,-23.39 -15.53,-34.74 -0.96,-30.27 7.81,-60.82 8.94,-89.95 0.95,-24.42 6.72,-30.24 4.86,-55.26 -0.92,-12.47 -7.62,-21.53 -14.53,-34.25 -5.73,-10.54 -13.24,-20.98 -16.12,-30.92 -5.12,-17.69 0.02,-38.67 -3.08,-56.83 -0.6,-3.56 -9.52,-7.91 -9.84,-11.51 -2.3,-24.93 0.51,-50.46 -1.1,-75.11 -0.83,-4.64 -4.59,-5.52 -5.03,-10.2 -1.31,-13.82 -0.01,-27.29 -0.05,-39.23 -0.04,-10.54 -1.5,-19.56 -1.5,-31.81 0,-4.57 -3.79,-7.7 -3.94,-12.27 -0.92,-26.95 0.21,-56.72 -0.15,-83.72 -0.39,-28.75 -2.14,-54.73 0.15,-83.35 0.4,-4.83 10.15,-4.71 9.96,-9.55 -0.91,-21.93 -2.8,-30.66 -2.29,-52.72 0.05,-2.54 5.27,-8.46 5.48,-10.99 1.53,-18.36 3.8,-36.73 -0.88,-52.43 -3.38,-11.38 -11.91,-14.92 -21.7,-22.26 -8.65,-6.48 -18.29,-17.03 -26.29,-22.93 -10.23,-7.56 -17.06,-13.64 -24.81,-24.97 -4.67,-6.82 3.03,-7.41 11.62,-7.66 11.03,-0.33 23.08,0.64 33.57,2.28 3.55,0.55 10.23,6.67 13.59,7.98 8.1,3.14 13.4,-0.94 21.68,1.65 6.32,1.97 32.73,15.75 39.85,19.85 9.71,5.6 12.86,13.72 22.99,18.47 1.83,0.86 33.15,9.82 36.78,10.73 8.48,2.11 13.75,-4.08 22.23,-1.96 9.85,2.45 27.37,7.42 38.43,10.73 6.22,1.87 10.16,9.23 16.55,10.49 30.94,6.17 25.41,-4.14 49.91,20.37 7.22,7.21 19.15,13.02 24.53,21.69 7.6,12.24 8.4,27.25 13.23,40.58 3.76,10.37 12.15,18.9 14.14,29.92 5.37,29.66 -0.23,60.51 3.4,90.44 1.12,9.14 10.51,18.78 11.5,27.94 3.75,35.05 4.38,69.67 0.11,104.67 -1.45,11.79 -11.37,16.59 -13.15,28.35 -2.95,19.71 2.94,39.9 1.54,59.77 -0.66,9.53 -5.95,19.47 -10.94,27.6 -3.65,5.91 -12,8.05 -14.67,14.45 -7.04,16.83 -5.27,39.83 -8.54,58.05 -1.02,34.79 -0.3,61.78 1.2,96.55 1.06,24.51 3.57,46.5 0.44,70.83 -1.1,8.43 -8.15,13.05 -9.42,21.46 -3.48,23.24 -0.49,47.11 -2.74,70.51 -0.38,3.98 -6.28,8.59 -7.12,12.5 -1.57,21.37 -3.06,52.58 -12.38,76.64 -6.12,15.88 -21.05,31.88 -35.37,41.07 -13.87,8.91 -28.79,10.82 -44.77,14.9 -10.09,2.56 -21.4,1.33 -30.65,6.11 -5.54,2.88 -1.83,2.92 -6.88,6.54 -2.92,2.07 -7.98,2.25 -10.73,0 -3.9,-3.19 -2.69,-4.5 -7.23,-6.65 -6.93,-3.28 -15.96,-3.02 -23,0 -5.08,2.18 -3.22,6.15 -8.66,7.2 -10.96,2.14 -23.8,4.92 -35.66,4.6 -7.09,-0.18 -12.7,3.02 -14.69,-3.38zm102.89 -787.18c15.39,-0.82 18.41,-1.66 32.12,5.71 14.17,7.6 17.14,12.62 25.79,26.35 4.47,4.31 8.94,8.62 13.4,12.93 18.2,17.56 26.79,42.37 34.23,65.61 1.22,25.23 6.64,69.44 -5.95,92.34 -6.28,11.43 -8.77,20.25 -9.83,29.94 -2.98,27.14 -10.68,22.9 -18.51,43.45 -2.12,5.58 -1.67,12.51 -1.86,25.74 -0.69,47.24 -1.39,94.47 -2.07,141.71 -0.44,30.18 -6.11,44.57 -18.31,72.44 -7.16,13.33 -10.92,21.91 -10.92,37.03 0,17.92 -3.66,26.18 -10.78,42.51 -4.34,9.93 -8.69,19.88 -13.03,29.83 -5.15,11.78 -9.86,16.01 -13.28,14.43 -3.42,-1.57 -5.54,-8.97 -5.48,-20.41 0.3,-57.67 0.6,-115.32 0.9,-172.99 0.67,-61.31 1.33,-122.61 1.98,-183.92 -0.77,-13.17 -0.28,-16.09 -8.92,-25.85 -0.82,-19.84 -4.65,-28.82 -10.93,-47.72 -7.93,-14.9 -7.02,-25.77 -7.21,-42.8 -0.5,-42.61 -1,-85.23 -1.5,-127.84 -0.3,-26.15 5.62,-17.21 30.16,-18.5zm-1004.84 733.07c-4.75,-23.19 -1.43,-41.61 -0.19,-59.05 0.6,-4.16 8.99,-0.28 11.26,-3.79 3.4,-5.26 6.47,-12.46 4.23,-18.3 -1.35,-3.5 -3.74,1.33 -5.75,-1.84 -2.78,-4.37 -1.81,-11.42 1.41,-15.48 4.68,-5.94 14.05,-4.41 17.25,-11.26 4.37,-9.37 -3.12,-21.13 0,-30.97 1,-3.13 9.09,3.19 9.85,0 3.65,-15.06 -0.89,-31.14 1.41,-46.45 0.61,-3.99 4.13,-5.84 4.59,-9.84 1.95,-16.79 2.97,-34.05 0,-50.68 -1.84,-10.32 -10.18,-17.76 -11.62,-28.15 -5.23,-37.69 -6.8,-78.72 -1.95,-116.47 3.77,-29.29 22.44,-74.6 33.41,-102.02 6.86,-17.17 10.22,-11.81 16.4,-29.23 1.89,-5.33 3.19,-11.53 1.41,-16.89 -2.22,-6.67 -10.1,-11.78 -9,-18.73 1.37,-8.52 11.83,-8.3 14.62,-16.46 3.8,-11.1 -3.84,-24.11 0,-35.19 4.53,-13.04 20.11,-20.53 23.93,-33.78 3.65,-12.65 -0.26,-32.85 3.31,-45.53 7.06,-25.04 15.55,-41.22 27.66,-64.25 7.15,-13.6 19.57,-25.09 25.15,-39.41 5.39,-13.8 4.83,-32.07 7.22,-43.64 -8.8,-10.99 -28.98,4.35 -42.23,-0.43 -6.71,-2.42 -6.69,-13.42 -13.35,-16.03 -14.24,-0.97 -27.86,-1.3 -38,6.3 -13.6,10.2 -13.7,22.16 -19.03,38.3 -7.94,24.13 -1.89,51.23 -11.8,74.61 -3.93,9.24 -19.92,11.84 -27.61,18.29 -4.06,3.41 -5.95,6.97 -11.26,6.97 -5.31,0 -9.93,-1.84 -11.26,-6.97 -2.69,-10.44 0.53,-21.59 0,-32.38 -0.41,-8.48 -4.96,-17.12 -2.81,-25.33 1.12,-4.28 10.92,-2.62 11.26,-7.03 4.21,-48.36 -1.58,-96.41 -0.84,-142.62 0.26,-16.23 4.57,-13.82 20.54,-13.98 26.9,-0.28 69.54,-0.07 100.46,-0.23 54.26,-0.27 108.65,-2.29 162.75,-0.81 8.05,0.58 18.53,3.57 19.1,11.62 1.14,16.28 -9.77,31.98 -17.31,46.45 -3.99,7.65 -12.92,12.65 -15.85,20.75 -5,13.73 0.43,30.01 -4.85,43.64 -3.22,8.36 -19.62,9.9 -22.76,18.29 -4.46,11.87 3.24,26.21 -1.42,38 -2.3,5.86 -14.79,2.51 -16.89,8.45 -7.08,20.09 -2.92,42.77 -8.44,63.34 -3.06,11.36 -11.66,19.32 -13.22,30.97 -4.22,31.63 2.74,63.92 0,95.71 -0.6,6.9 -7.89,11.66 -9.86,18.3 -4.64,15.6 -7.56,32.47 -12.91,47.85 -2.3,6.65 -10.87,10.09 -12.67,16.9 -2.64,9.97 3.98,21.44 0,30.96 -5.01,11.97 -22.64,16.87 -25.33,29.56 -7.6,35.83 4.43,73.6 -1.16,109.78 -2.5,16.2 -16.78,28.91 -19.71,45.04 -3.78,20.77 2.72,45.32 -2.45,65.78 -5,19.76 -19.31,36.88 -26.49,55.94 -1.69,18.7 -24.09,35.87 -11.88,49.99 14.74,1.95 39.2,4.96 56.3,-2.82 7.88,-3.56 -1.25,-20.09 5.64,-25.32 21.02,-16.06 45.13,-21.84 68.71,-33.78 13.49,-6.83 30.45,-13.36 42.48,-22.52 6.11,-4.66 6.81,-15.73 14.07,-18.3 4.37,-1.55 5.28,9.08 9.84,9.85 15.73,2.67 29.36,-4.05 44.8,0 6.17,1.62 5.97,9.92 7.58,16.1 1.45,5.53 3.94,11.48 0.87,16.27 -1.86,2.88 -8.56,-0.33 -9.86,2.83 -2.67,6.5 -1.64,14.26 0,21.1 1.29,5.33 6.16,8.64 6.61,14.08 2.41,28.53 3.21,57.42 0,85.86 -0.67,5.97 -4.06,12.23 -10.03,12.85 -40.59,-1.87 -78.12,1.12 -118.77,1.24 -4.19,-0.37 -1.79,-7.78 -5.65,-9.43 -10.48,-4.51 -29.38,-5.12 -40.5,-2.57 -12.95,2.97 -14.02,13.61 -27.05,16.21 -23.46,4.7 -50.58,0.1 -74.23,3.68 -8.37,1.26 -14.75,8.35 -22.95,10.4 -11.38,2.83 -29.33,5.86 -35.19,-4.29zm-626.96 66.11c-17.54,6.16 -38.02,0.02 -56.63,0.41 -5.73,0.13 -15.06,4.63 -20.57,3.01 -6.01,-1.76 -15.49,-13.68 -11.73,-18.7 14.68,-19.58 43.63,-22.02 57.03,-42.48 7.88,-12.04 0.5,-28.24 3.89,-42.22 1.04,-4.3 8.56,-3.9 10.79,-7.71 1.81,-3.1 2.33,-8.06 0,-10.79 -5.35,-6.23 -8.74,6.85 -10.84,-11.83 -1.9,-16.72 -2.28,-33.69 -0.74,-50.39 0.98,-10.63 8.71,-8.38 10.16,-13.99 2.72,-10.44 -2.94,-18.18 -0.13,-28.61 1.26,-4.68 9.92,-3.5 12.33,-7.71 2.29,-4.01 2.56,-10.02 0,-13.87 -5.25,-7.88 -19.52,-7.75 -21.12,-17.09 -2.92,-17.17 -1.36,-35.59 -1.06,-52.62 0.33,-18.13 -0.92,-36.33 0.59,-54.81 0.28,-3.42 8.05,-3.28 9.26,-6.5 2.33,-6.24 0.86,-13.42 0,-20.04 -0.69,-5.31 0.94,-16.18 0.53,-21.52 -0.62,-8.21 -4.15,-11.26 -0.33,-18.55 2.66,-5.08 11.33,-2.02 12.13,-7.71 4.22,-30.01 -4.79,-60.79 -1.55,-90.94 0.56,-5.11 8.6,-4.29 9.94,-9.25 2.17,-7.99 2.85,-17.18 -0.69,-24.67 -1.68,-3.53 -9.56,-3.54 -9.85,-7.44 -3.46,-44.05 2.56,-85.7 -0.94,-129.74 -0.33,-4.13 -10.46,1.67 -10.65,-16.24 -0.2,-18.76 -1.93,-36.26 -1.68,-50.04 0.19,-10.58 23.02,-10.87 22.78,-21.45 -0.37,-16.12 2.17,-34.32 -1.55,-50.87 -1.19,-5.32 -8.13,-4.44 -10.44,-9.38 -2.19,-4.64 -0.13,-9.27 1.87,-14 2.4,-5.7 8.92,-9.3 10.46,-15.28 2.82,-10.94 2.53,-22.9 0,-33.91 -0.84,-3.61 -7.05,-7.13 -8.79,-10.4 -3.2,-6.05 -1.76,-11.39 -6.02,-16.75 -2.96,-3.69 -11.69,-1.43 -15.28,-4.49 -9.26,-7.91 -14.59,-16.7 -22.35,-23.89 -7.3,-6.76 -17.14,-11.86 -22.75,-21.81 -3.62,-6.39 0.59,-17.45 6.43,-21.91 4.48,-3.43 11.5,-2.65 16.49,0 4.05,2.15 3.97,10.76 8.51,11.39 19.87,2.76 39.59,-5.98 59.18,-1.68 8.54,1.88 9,12.67 16.96,16.28 5.33,2.42 14.92,-2.25 19.77,1.02 7.11,4.81 13.15,15.03 18.76,20.75 7.2,7.34 13.42,10.61 17.1,21.01 4.65,13.13 2.61,26.59 2.41,40.25 -0.18,12.05 1.78,24.25 0.67,36.48 -0.37,4.12 -8.28,2.18 -9.39,6.16 -1.93,7 -0.55,14.83 3.09,21.12 2.64,4.57 9.8,2.24 11.52,7.23 4.02,11.67 4.53,25.96 1.55,37.94 -1.11,4.45 -9.71,1.58 -9.98,6.16 -3.46,57.96 -4.33,116.42 1.54,174.18 1,9.81 16.52,13.32 17.56,23.12 5.81,54.67 0.52,110 -1.75,164.93 -0.32,7.81 -4.19,17.63 -7.37,23.46 -3.56,6.52 -1.35,13.03 -1.22,20.22 0.18,9.25 -0.93,19.33 0.48,28.78 0.81,5.39 11.77,10.52 11.39,15.96 -1.04,14.98 1.1,22.07 2.01,36.84 0.44,7.11 -12.52,11.55 -16.62,17.37 -2.96,4.18 -4.76,12.29 -2.35,16.82 2.27,4.27 6.35,2.1 7.64,6.76 1.83,6.6 1.98,12.18 -1.34,18.17 -2.14,3.85 -10.04,3.34 -10.79,7.69 -2.09,12.2 4.83,24.76 3.08,37 -0.52,3.67 -8.7,2.5 -9.25,6.16 -2.74,18.29 3.1,37.25 0,55.49 -1.18,6.89 -11.84,9.99 -12.33,16.97 -0.28,3.89 8.95,1.18 10.78,4.62 2.91,5.47 -4.39,16.77 1.55,18.5 19.72,5.76 44.13,4.28 64,-0.94 11.25,-2.96 16.02,-18.74 27.61,-19.84 13.96,-1.32 24.27,7.9 38.07,10.37 18.19,3.27 38.1,3.86 55.95,-0.94 10.54,-2.84 16.66,-14.02 27.48,-15.46 46.85,-6.3 90.31,-2.43 137.58,-2.67 44.69,-0.25 101.86,-2.5 135.05,1.12 18.92,0.64 -1.6,67.57 5.23,102.93 1.49,7.7 8.06,12.01 12.02,19.13 6.29,11.36 8.74,17.14 -7.62,17.07 -30.79,-0.15 -61.94,2.22 -95.34,0.81 -6.56,-0.27 -6.24,-12.92 -12.33,-15.42 -6.67,-2.73 -14.58,3.24 -21.58,1.56 -10.49,-2.54 -22.32,-12.6 -33.03,-13.87 -28.57,-3.43 -57.36,3.73 -85.86,-0.21 -6.46,-0.89 -7.35,-13.41 -13.86,-13.88 -66.62,-4.87 -130.44,2.12 -197.13,-1.51 -14.27,-0.79 -15.58,-5.76 -24.65,-8.4 -12.83,-3.7 -35.77,-5.19 -47.85,0.48 -22.52,10.53 -22.45,30.47 -45.91,38.72l0 0zm801.86 -260.44c-13.91,-0.41 -14.84,-22.76 -13.73,-36.47 1.14,-14.01 19.45,-13.29 25.98,-25.73 4.76,-9.07 -2.38,-25.01 3.05,-33.7 5.84,-9.36 21.69,-9.01 27.54,-18.36 3.35,-5.35 -1.65,-15.59 -1.5,-21.9 0.37,-14.92 3.72,-25.91 3.03,-40.82 -0.36,-7.76 -3.58,-21.76 -2.11,-29.39 2.02,-10.41 8.22,-7.88 11.3,-18.04 3.82,-12.7 -2.54,-27.15 1.52,-39.78 1.62,-4.99 14.71,-2.48 13.77,-7.65 -1.14,-6.28 -12.59,-2.9 -13.73,-9.18 -3.47,-19.12 -3.66,-41.62 1.5,-60.35 3.23,-11.72 16.53,-20.69 19.9,-32.38 3.52,-12.24 -3.94,-26.12 0,-38.25 2.66,-8.23 16.26,-9.96 18.36,-18.36 4.94,-19.79 0.53,-44.07 5.68,-63.81 2.7,-10.35 8.11,-22.09 14.73,-28.59 3.98,-3.9 7.56,-6.73 9.44,-12.88 2.54,-8.42 -3.72,-15.49 -2.28,-24.17 1.28,-7.67 7.13,-12.6 10.85,-19.43 4.71,-8.62 6.67,-19.54 11.18,-28.25 6.59,-12.74 15.45,-23.39 20.18,-36.93 3.52,-10.1 -4.05,-26.58 0.46,-36.29 6.39,-13.74 22.92,-13.41 29.21,-27.2 5.09,-11.14 -3.81,-25.7 1.54,-36.71 3.88,-8.03 12.66,-11.57 21.55,-11.93 6.53,-0.26 14.46,4.26 16.69,10.39 4.38,12.02 0.43,26.46 5.38,38.25 8.69,20.74 23.75,32.96 32.11,53.84 4.35,10.89 -0.36,26.54 2.3,37.96 3.63,15.53 6.16,31.18 11.3,46.3 6.36,18.83 15.49,37.09 20.84,56.21 4.74,16.94 5.87,35.31 9.53,52.54 2.67,12.58 7.56,24.13 11.9,36.2 1.85,5.19 8.12,3.87 9.61,9.19 2.61,9.38 -5.26,19.58 -3.06,29.06 2.6,11.34 14.82,22.83 16.83,34.29 3.26,18.59 -0.14,36.37 0.31,55.23 0.42,17.25 2.23,33.25 4.5,49.78 1.41,10.17 7.03,24.68 7.29,32.07 0.95,27.54 2.16,54.65 2.47,82.22 0.46,40.3 0.46,83.36 -1.56,123.58 -0.23,4.7 -5.83,7.09 -7.48,11.5 -6.24,16.67 -11.47,25.89 -15.47,43.25 -2.11,9.15 -2.18,19 -6.12,27.54 -2.41,5.24 -13.19,9.54 -15.01,15.01 -4.05,12.18 0.92,24.44 0.03,39.64 -0.76,13.09 -6.17,20.61 -11.62,32.77 -3.74,8.32 -9.8,21.28 -12.11,29.95 -2.5,9.42 2,19.73 -0.75,29.07 -1.46,4.89 -8.13,7.24 -9.18,12.24 -2.65,12.48 2.28,26.08 -1.55,38.24 -2.15,6.89 -3.65,5.88 -10.21,8.86 -4.67,2.08 -16.91,4.45 -17.6,-0.62 -2.97,-21.3 3.03,-36.09 -0.35,-57.34 -3.95,-24.87 -14.35,-39.99 -20.62,-64.38 -3.05,-11.84 2.39,-33.24 -3.23,-44.1 -10.12,-19.55 -42.55,-27.46 -41.13,-49.42 1.37,-21.25 14.06,-35.08 27,-52.37 8.84,-11.84 14.59,-31.17 20.1,-44.65 4.04,-9.95 6.4,-21.6 6.58,-31.41 0.27,-14.64 -3.69,-21.02 -14.78,-30.12 -23.16,-19.03 -60.59,-36.44 -89.42,-50.46 -4.22,-2.04 -9.18,6.01 -9.18,10.71 0,4.71 5.51,8.36 6.05,13.03 1.6,13.7 -6.7,27.93 -0.76,40.38 6.27,13.16 31.01,16.99 27.35,31.09 -2.47,9.44 -4.8,12.77 -12.81,17.37 -4.86,2.8 -10.25,2.61 -15.93,2.87 -17.05,0.78 -34.56,-5.26 -51.03,-1.78 -17.88,3.79 -33.87,12.05 -50.4,20.28 -10.93,5.47 -22.11,12.67 -34.22,12.3zm150.71 -213.9c-0.15,-13.5 -0.48,-26.78 -0.45,-40.06 0.03,-11.73 0.31,-23.45 1.24,-35.31 0.6,-7.7 7.65,-13.58 8.56,-21.25 1.53,-12.69 -6.27,-27.92 -2.71,-40.12 1.43,-4.96 13.98,0.01 16.82,-4.15 0.94,-1.37 2.84,-9.31 6.01,-16.08 1.91,-4.06 5.86,-7.71 5.86,-9.27 0,-2.26 -0.15,-18.37 1.56,-32.33 0.99,-8.11 2.23,-14.94 3.47,-15 1.22,-0.05 2.45,6.66 6.75,12.25 4.94,6.43 6.61,12.81 10.93,19.6 2.55,4.02 5.3,8.75 9.52,10.37 5.36,2.09 11.78,-0.85 17.12,1.31 4,1.62 4.97,7.88 8.57,10.37 2.42,1.69 8,-1.53 8.56,1.56 2.54,13.89 0.35,32.49 2.55,46.44 0.54,3.34 7.93,1.79 8.1,5.19 1.12,24.31 1.69,48.64 1.6,72.99 -0.06,21.47 -0.63,42.97 -1.74,64.42 -0.3,6.12 -16.47,6.55 -20.98,3.11 -8.73,-6.64 -14.26,-14.36 -25.67,-17.12 -4.77,-1.14 -4.53,-8.68 -9.05,-10.18 -10.01,-3.33 -22.65,-4.17 -33.12,-4.17 -6.83,0 -16.7,2.41 -23.49,1.56 -1.25,-0.15 0.02,-2.77 0,-4.14zm324.93 -418.9c0.03,13.98 1.53,29.13 1.57,43.78 0.07,18.84 -1.31,35.72 -1.24,54.72 0.07,20.23 1.58,42.56 1.58,62.35 0,16.08 -2.93,46.98 -1.69,60.33 1.6,17.17 2.54,20.15 26.01,20.15 11.36,0 26.76,-11.66 38.1,-23.43 7.77,-8.06 6.6,-21.98 9.59,-28 4.39,-8.85 11.89,-16.95 13.45,-27.21 2,-13.22 -2.82,-24.12 5.98,-32.58 3.47,-3.34 6.75,-41.27 6.75,-49.62 0,-11.9 -12.51,-29.54 -26.87,-45.33 -9.82,-10.8 -21.61,-20.5 -26.63,-27.9 -9.21,-13.54 -16.1,-19.49 -27,-21.92 -19.93,-4.45 -19.62,-2.62 -19.61,14.66zm-105.19 744.57c-3.71,14.68 7.59,20.68 20.97,29.32 13.36,8.64 28.8,19.95 43.35,31.87 24.62,20.17 41.37,56.98 57.38,93.23 8.25,-8.77 2.42,-49.62 7.05,-74.1 0.99,-5.25 6.64,-9.03 7.17,-14.34 1.9,-19.03 2.36,-38.39 0,-57.36 -0.89,-7.08 -7.73,-12.26 -9.56,-19.13 -1.45,-5.4 -1.1,-11.28 0,-16.74 1.33,-6.67 6.55,-12.35 7.16,-19.13 1.81,-19.84 2.99,-40.07 0,-59.75 -1.13,-7.43 -12.52,-11.63 -11.95,-19.12 0.48,-6.2 13.88,-5.76 14.34,-11.95 1.31,-17.77 -4.85,-34.93 -7.05,-52.6 -4.96,-39.73 -7.86,-79.69 -11.96,-119.52 -1.47,-14.35 -7.2,-28.8 -4.78,-43.03 7.48,-19.4 14.31,-39.33 21.51,-54.98 3.51,-4.62 8.15,4.39 11.72,8.96 11.65,14.88 27.13,33.29 30.47,51.87 4.1,22.8 -8.25,42.97 -5.61,65.98 0.76,6.71 11.11,5.52 13.49,11.83 11.42,30.21 20.7,61.44 26.3,93.23 6.39,36.24 8.46,73.19 9.57,109.97 0.48,16 -0.21,32.47 -4.79,47.81 -6.53,21.9 -20.14,39.38 -26.89,60.54 -7.07,22.15 -9.35,28.77 14.09,28.75 9.27,-0.01 20.1,0.36 27.26,3.94 19.18,9.6 27.1,31.71 45.3,43.03 3.94,2.44 9.09,5.83 14.5,8.87 25.82,14.45 28.67,4.47 34.04,-18.14 7.09,-29.89 8.9,-56.86 13.48,-86.35 2.35,-14.95 1.86,-30.29 2.51,-45.41 0.94,-21.55 2.55,-43 1.45,-64.56 -0.51,-10.05 -0.46,-21.06 -7.05,-28.68 -4.96,-5.72 -19.57,0.13 -21.51,-7.17 -2.68,-10 11.75,-18.33 11.95,-28.69 -3.95,-27.95 -7.58,-52.96 -8.04,-80.51 -0.54,-32.48 -7.49,-16.13 -18.26,-28.85 -6.5,-7.69 -8.54,-14.47 -9.56,-24.5 -3,-29.34 1.25,-61.82 -3.23,-90.96 -2,-13.04 -8.1,-25.89 -16.73,-35.86 -3.13,-3.61 -8.87,1.77 -11.01,-2.51 -3.58,-7.16 7.43,-12.06 3.23,-18.88 -9.75,-15.84 -30.17,-27.94 -45.65,-38.25 -4.64,-3.09 -12.8,3.95 -16.74,0 -3.94,-3.94 -3.84,-16.05 0,-20.08 27.56,-3.99 41.75,-16.97 55.21,-32.51 18.26,-21.07 27.2,-44.55 36.35,-70.88 4.23,-12.14 -1.18,-26.32 0.24,-39.09 2.61,-23.63 15.01,-45.08 10.88,-68.49 -6,-34.04 -22.78,-64.55 -42.07,-93.23 -10.72,-15.92 -27.36,-30.03 -44.7,-38.25 -14.47,-6.85 -26.59,-1.12 -41.96,-5.62 -17.79,-5.21 -32.05,-15.16 -50.2,-18.88 -14.13,-2.89 -28.96,3 -43.03,-0.24 -8.78,-2.02 -10.21,-11.9 -19.13,-13.27 -6.14,-0.95 -12.43,7.96 -18.63,8.49 -42.88,3.63 -78.07,-4.68 -120.74,0.95 -6.37,0.85 -4.56,7.95 0.73,11.6 7.89,5.46 19.88,2.76 28.69,6.57 15.81,6.85 27.96,16.06 39.68,28.69 9.7,10.44 13.65,22.06 22.46,38.25 3.62,6.63 14.03,-6.11 21.53,-7.17 9.45,-1.36 16.02,-1.61 21.99,5.85 5.37,6.69 -5.74,15.62 -12.07,21.39 -12.8,11.66 -21.5,17.84 -32.82,25.59 -7.74,5.3 -21.44,10.06 -27.2,20.42 -12.76,22.99 2.37,49.12 7.29,74.94 1.8,9.43 3.85,18.63 5.99,27.97 6.94,30.38 4.61,55.67 8.84,86.53 1.37,9.98 8.45,18.67 9.57,28.69 1.32,11.9 -0.83,20.67 0.96,32.51 0.74,5.05 4.87,10.39 6.21,15.3 5.95,21.86 11.2,49.32 11.95,71.96 2.44,74.07 -1.94,146.63 1.79,220.65 0.34,6.74 10.45,9.41 11.84,16.02 2.15,10.24 -4.68,22.01 -8.12,31.91 -14.15,40.5 -30.74,70.82 -39.47,105.3z"/>
 </g>
</svg>
